#!OML:ASF I:\Actors\actors\Patient Classification 1\Patient 1\Session 1\Subject1.ASF
:FULLY-SPECIFIED
:DEGREES
766
root 0.822806 17.5876 8.01664 5.47279 -3.08153 -10.2235
lowerback 0.207304 -1.80771 6.18913
upperback -3.94198 -2.2246 1.12129
thorax -4.39774 -1.30981 -2.20593
lowerneck -17.3822 -9.51673 -4.23278
upperneck 23.2628 -15.1214 9.94877
head 11.6116 -6.09407 1.9346
rclavicle 1.50579e-014 2.3059e-014
rhumerus -27.8223 71.4516 -127.274
rradius 127.27
rwrist 2.1783
rhand -25.8038 -56.4939
rfingers 7.12502
rthumb 0.735237 -446.472
lclavicle 1.50579e-014 2.3059e-014
lhumerus -70.4903 -115.844 161.846
lradius 104.72
lwrist 61.8619
lhand 11.5049 -1.40452
lfingers 7.12502
lthumb 36.5522 24.7744
rfemur -8.96072 18.5436 27.4349
rtibia 14.2029
rfoot -14.1705 -15.2235
rtoes -1.96899
lfemur 0.0632325 -25.9967 -6.26249
ltibia 1.8783
lfoot -11.7495 36.3692
ltoes -4.08582
767
root 0.819472 17.5859 8.02266 5.37653 -2.97996 -10.248
lowerback 0.151439 -2.00768 6.17249
upperback -3.97215 -2.49492 1.13612
thorax -4.41965 -1.44462 -2.16927
lowerneck -16.4207 -10.2355 -4.92195
upperneck 24.0595 -16.0554 9.73793
head 11.8442 -6.60964 1.84082
rclavicle -2.0276e-014 5.1684e-014
rhumerus -28.1994 71.5525 -127.738
rradius 127.132
rwrist 1.73839
rhand -25.5339 -56.5161
rfingers 7.12502
rthumb 0.995948 -446.494
lclavicle -2.0276e-014 5.1684e-014
lhumerus -71.1773 -115.613 162.294
lradius 104.95
lwrist 61.3291
lhand 9.66714 -1.76705
lfingers 7.12502
lthumb 34.8106 24.833
rfemur -8.86511 18.463 27.5238
rtibia 14.2849
rfoot -14.1916 -15.2769
rtoes -1.99256
lfemur 0.179964 -25.9433 -6.25312
ltibia 1.83262
lfoot -11.6544 36.2181
ltoes -4.25116
768
root 0.816138 17.5836 8.02812 5.28756 -2.95494 -10.2326
lowerback 0.128347 -2.16306 6.12767
upperback -4.00997 -2.70363 1.14782
thorax -4.46119 -1.54843 -2.12172
lowerneck -15.3652 -10.8412 -5.84745
upperneck 24.797 -16.834 9.71646
head 12.0741 -7.06243 1.88309
rclavicle -1.82385e-014 1.51076e-014
rhumerus -28.378 71.7215 -128.006
rradius 127.048
rwrist 1.32931
rhand -25.4117 -56.5103
rfingers 7.12502
rthumb 1.11396 -446.487
lclavicle -1.82385e-014 1.51076e-014
lhumerus -71.6836 -115.402 162.65
lradius 105.135
lwrist 60.8916
lhand 7.90265 -2.26034
lfingers 7.12502
lthumb 33.1345 24.7114
rfemur -8.81312 18.407 27.5622
rtibia 14.4191
rfoot -14.2107 -15.2979
rtoes -2.34505
lfemur 0.331624 -25.9246 -6.31533
ltibia 1.77328
lfoot -11.5824 36.1628
ltoes -4.3508
769
root 0.812377 17.581 8.03339 5.19705 -3.01045 -10.1582
lowerback 0.103385 -2.26631 6.03695
upperback -4.02351 -2.84633 1.12012
thorax -4.46953 -1.61724 -2.09358
lowerneck -14.2001 -11.3769 -6.52768
upperneck 25.3667 -17.5097 9.482
head 12.1681 -7.48768 1.83868
rclavicle 1.71452e-014 -3.33958e-014
rhumerus -28.4262 71.9439 -128.222
rradius 127
rwrist 1.1253
rhand -25.2651 -56.5504
rfingers 7.12502
rthumb 1.25548 -446.526
lclavicle 1.71452e-014 -3.33958e-014
lhumerus -71.9686 -115.224 162.829
lradius 105.23
lwrist 60.6408
lhand 6.77695 -2.77175
lfingers 7.12502
lthumb 32.0634 24.4215
rfemur -8.77366 18.3839 27.5222
rtibia 14.5597
rfoot -14.287 -15.2515
rtoes -2.52101
lfemur 0.517359 -25.9381 -6.47602
ltibia 1.72873
lfoot -11.6322 36.1944
ltoes -4.11329
770
root 0.808643 17.5793 8.0379 5.14149 -3.07989 -10.0984
lowerback 0.0597114 -2.34262 5.9398
upperback -4.02695 -2.95368 1.12756
thorax -4.45102 -1.66666 -2.02852
lowerneck -13.4072 -11.8404 -7.01889
upperneck 26.2241 -18.1016 9.02725
head 12.4031 -7.8567 1.67905
rclavicle -4.27884e-014 7.95139e-015
rhumerus -28.6477 72.0876 -128.595
rradius 126.916
rwrist 1.07097
rhand -24.8923 -56.4193
rfingers 7.12502
rthumb 1.61557 -446.393
lclavicle -4.27884e-014 7.95139e-015
lhumerus -72.0942 -115.092 162.9
lradius 105.319
lwrist 60.701
lhand 5.85249 -3.1611
lfingers 7.12502
lthumb 31.1828 24.2054
rfemur -8.76248 18.3852 27.4847
rtibia 14.6775
rfoot -14.341 -15.2017
rtoes -2.69349
lfemur 0.63994 -25.8926 -6.5819
ltibia 1.70708
lfoot -11.657 36.1873
ltoes -4.14751
771
root 0.806727 17.5785 8.04196 5.13207 -3.14086 -10.0605
lowerback -0.0290571 -2.42466 5.91935
upperback -4.01976 -3.07089 1.12388
thorax -4.40165 -1.72317 -2.01956
lowerneck -12.8235 -12.1999 -7.22809
upperneck 27.0068 -18.5513 8.44516
head 12.5945 -8.14584 1.44509
rclavicle 1.79403e-014 -2.3059e-014
rhumerus -28.8807 72.1924 -129.056
rradius 126.75
rwrist 1.05557
rhand -24.3836 -56.1563
rfingers 7.12502
rthumb 2.10686 -446.126
lclavicle 1.79403e-014 -2.3059e-014
lhumerus -72.1196 -115.065 162.758
lradius 105.457
lwrist 60.852
lhand 4.80018 -3.46149
lfingers 7.12502
lthumb 30.1794 24.0931
rfemur -8.78789 18.3887 27.4565
rtibia 14.784
rfoot -14.3782 -15.1599
rtoes -2.72699
lfemur 0.683854 -25.8009 -6.62955
ltibia 1.70443
lfoot -11.5948 36.1607
ltoes -4.50163
772
root 0.806291 17.5777 8.04562 5.11256 -3.20943 -10.0301
lowerback -0.0822523 -2.50808 5.96589
upperback -4.01342 -3.18683 1.08789
thorax -4.37954 -1.78273 -2.07959
lowerneck -12.2102 -12.4666 -7.55149
upperneck 27.5874 -18.9134 8.18124
head 12.7442 -8.37856 1.36182
rclavicle 1.49089e-016 -1.27222e-014
rhumerus -28.9864 72.2971 -129.478
rradius 126.681
rwrist 0.97126
rhand -23.7746 -56.1863
rfingers 7.12502
rthumb 2.69504 -446.149
lclavicle 1.49089e-016 -1.27222e-014
lhumerus -72.132 -115.081 162.463
lradius 105.652
lwrist 60.9422
lhand 3.88712 -3.61908
lfingers 7.12502
lthumb 29.3079 24.0913
rfemur -8.77463 18.417 27.4383
rtibia 14.8358
rfoot -14.4181 -15.1166
rtoes -2.47468
lfemur 0.761313 -25.824 -6.71262
ltibia 1.70942
lfoot -11.6736 36.2299
ltoes -4.39606
773
root 0.806234 17.5772 8.04789 5.07123 -3.29375 -10.05
lowerback -0.0488678 -2.58542 6.00044
upperback -4.01353 -3.28585 1.12184
thorax -4.40718 -1.83316 -2.05706
lowerneck -11.6637 -12.6532 -8.0975
upperneck 28.1152 -19.182 8.17102
head 12.9382 -8.56003 1.41453
rclavicle 2.40032e-014 5.56597e-015
rhumerus -29.3623 72.5115 -130.074
rradius 126.75
rwrist 1.15234
rhand -23.1837 -56.8394
rfingers 7.12502
rthumb 3.26573 -446.794
lclavicle 2.40032e-014 5.56597e-015
lhumerus -72.3238 -115.042 162.408
lradius 105.826
lwrist 60.7763
lhand 3.02015 -3.67805
lfingers 7.12502
lthumb 28.4798 24.174
rfemur -8.70761 18.4597 27.4838
rtibia 14.8265
rfoot -14.431 -15.0639
rtoes -2.5542
lfemur 0.88626 -25.8726 -6.75842
ltibia 1.69127
lfoot -11.7889 36.3232
ltoes -4.13021
774
root 0.807298 17.5772 8.04934 5.0456 -3.38315 -10.1175
lowerback 0.0237063 -2.64176 6.0431
upperback -4.02818 -3.35109 1.21189
thorax -4.46657 -1.86686 -1.98003
lowerneck -11.2919 -12.7977 -8.43387
upperneck 28.6897 -19.3436 7.88685
head 13.12 -8.69768 1.34501
rclavicle 1.54058e-015 3.18055e-015
rhumerus -30.2366 72.6604 -131.002
rradius 126.643
rwrist 1.67689
rhand -22.6717 -57.5157
rfingers 7.12502
rthumb 3.76014 -447.462
lclavicle 1.54058e-015 3.18055e-015
lhumerus -72.5297 -114.863 162.535
lradius 105.884
lwrist 60.3185
lhand 2.2499 -3.87794
lfingers 7.12502
lthumb 27.7436 24.095
rfemur -8.64196 18.4293 27.5693
rtibia 14.7839
rfoot -14.381 -14.9635
rtoes -2.90545
lfemur 0.969163 -25.8105 -6.71521
ltibia 1.676
lfoot -11.7815 36.3471
ltoes -4.14119
775
root 0.809045 17.5771 8.05001 5.07359 -3.46232 -10.1926
lowerback 0.0572222 -2.68533 6.09743
upperback -4.0586 -3.40111 1.30435
thorax -4.51965 -1.8936 -1.90902
lowerneck -11.0224 -12.8732 -8.52639
upperneck 29.1787 -19.404 7.50592
head 13.2369 -8.77717 1.21869
rclavicle -2.72335e-014 -2.38542e-015
rhumerus -30.997 72.5922 -131.729
rradius 126.375
rwrist 1.72836
rhand -22.3001 -57.6568
rfingers 7.12502
rthumb 4.11902 -447.597
lclavicle -2.72335e-014 -2.38542e-015
lhumerus -72.6753 -114.569 162.642
lradius 105.887
lwrist 59.8879
lhand 1.74681 -4.17899
lfingers 7.12502
lthumb 27.2624 23.8705
rfemur -8.64266 18.3756 27.6356
rtibia 14.7389
rfoot -14.3239 -14.8411
rtoes -2.96096
lfemur 0.955016 -25.7379 -6.62269
ltibia 1.69627
lfoot -11.8311 36.3604
ltoes -4.11383
776
root 0.809879 17.5775 8.05005 5.15927 -3.55153 -10.2491
lowerback 0.0316979 -2.71367 6.18688
upperback -4.07234 -3.4372 1.33703
thorax -4.52673 -1.91465 -1.92354
lowerneck -10.8256 -12.8981 -8.62012
upperneck 29.4979 -19.4625 7.43147
head 13.3389 -8.82133 1.20203
rclavicle 6.70898e-015 4.05521e-014
rhumerus -31.2419 72.388 -131.995
rradius 126.251
rwrist 1.04584
rhand -21.9387 -57.732
rfingers 7.12502
rthumb 4.46797 -447.665
lclavicle 6.70898e-015 4.05521e-014
lhumerus -72.7603 -114.324 162.599
lradius 105.888
lwrist 59.6679
lhand 1.45361 -4.42984
lfingers 7.12502
lthumb 26.9819 23.6633
rfemur -8.72113 18.43 27.6672
rtibia 14.7018
rfoot -14.2813 -14.7829
rtoes -2.79103
lfemur 0.857232 -25.6065 -6.50045
ltibia 1.7347
lfoot -11.8935 36.3269
ltoes -4.03979
777
root 0.810716 17.5782 8.0509 5.25577 -3.65112 -10.2857
lowerback -0.0157415 -2.7194 6.31121
upperback -4.05114 -3.4468 1.33076
thorax -4.48739 -1.92283 -2.00142
lowerneck -10.7989 -12.9166 -8.58852
upperneck 29.7503 -19.4899 7.28512
head 13.4204 -8.84153 1.13603
rclavicle -1.3418e-014 1.74931e-014
rhumerus -31.2031 72.1524 -131.967
rradius 126.243
rwrist 0.211327
rhand -21.3526 -57.9734
rfingers 7.12502
rthumb 5.03389 -447.894
lclavicle -1.3418e-014 1.74931e-014
lhumerus -72.7811 -114.168 162.529
lradius 105.842
lwrist 59.3969
lhand 1.39301 -4.58732
lfingers 7.12502
lthumb 26.9239 23.5148
rfemur -8.8057 18.53 27.6788
rtibia 14.6486
rfoot -14.2094 -14.7741
rtoes -2.72504
lfemur 0.759956 -25.427 -6.39187
ltibia 1.75657
lfoot -11.8274 36.2638
ltoes -4.09596
778
root 0.812286 17.5794 8.05189 5.34506 -3.75086 -10.3018
lowerback -0.0519202 -2.73346 6.38932
upperback -4.04513 -3.46614 1.35641
thorax -4.46602 -1.93419 -2.01915
lowerneck -10.7478 -12.8552 -8.49341
upperneck 29.9146 -19.3757 7.07586
head 13.4288 -8.80511 1.06857
rclavicle 3.94588e-014 6.36111e-015
rhumerus -31.5517 72.0227 -132.222
rradius 126.214
rwrist -0.244257
rhand -20.4142 -58.2956
rfingers 7.12502
rthumb 5.93992 -448.192
lclavicle 3.94588e-014 6.36111e-015
lhumerus -72.9959 -113.942 162.743
lradius 105.775
lwrist 58.8594
lhand 1.47785 -4.44349
lfingers 7.12502
lthumb 27.0051 23.6461
rfemur -8.86362 18.6311 27.6655
rtibia 14.5643
rfoot -14.1312 -14.7768
rtoes -2.74349
lfemur 0.693094 -25.342 -6.33106
ltibia 1.75511
lfoot -11.8602 36.2699
ltoes -4.02786
779
root 0.814499 17.5815 8.05278 5.4482 -3.84768 -10.2275
lowerback -0.0672995 -2.74409 6.34986
upperback -4.09897 -3.4795 1.38163
thorax -4.51063 -1.94117 -1.96938
lowerneck -10.6167 -12.7087 -8.32865
upperneck 29.9783 -19.1495 6.89665
head 13.3623 -8.71619 1.03152
rclavicle -1.33186e-014 -2.94201e-014
rhumerus -31.7062 72.3299 -132.178
rradius 126.198
rwrist -0.534187
rhand -19.2998 -59.1389
rfingers 7.12502
rthumb 7.01579 -449.003
lclavicle -1.33186e-014 -2.94201e-014
lhumerus -73.3618 -113.549 163.18
lradius 105.667
lwrist 58.1747
lhand 1.62405 -4.25541
lfingers 7.12502
lthumb 27.145 23.8124
rfemur -8.93361 18.7403 27.5342
rtibia 14.4528
rfoot -14.0552 -14.7872
rtoes -2.70597
lfemur 0.606444 -25.3503 -6.39265
ltibia 1.76017
lfoot -12.0461 36.3567
ltoes -3.6785
